<svg xmlns="http://www.w3.org/2000/svg" id="Layer_1" data-name="Layer 1" viewBox="0 0 64.42 63.39">
  <defs>
    <style>
      .cls-1{fill:#fee35e}.cls-4{fill:#231f1d}.cls-5{fill:#fff}.cls-6{fill:#e8d04f}
    </style>
  </defs>
  <path d="M62.78 40.32c0 15.77-12.2 23-28.53 23S0 47.48 0 31.7s16.86-20 33.2-20 29.58 12.84 29.58 28.62Z" class="cls-1"/>
  <circle cx="42.41" cy="20.83" r="20.83" class="cls-1"/>
  <path d="m640.81 451.54 8.91-7.17a8.79 8.79 0 0 1 2.44-.89l2.52-1c.57-.19.53.11.76.66.85 2.07 3.35 7.22 2 9.31-2.83 4.51-12 3.51-16.48.32-.19-.15-1.16-.3-.15-1.23Z" style="fill:#f79246" transform="translate(-593.84 -413.33)"/>
  <path d="M655 442.19c5.35 6.62 2.47 10.28 2.47 10.28-7.41-4.15-7.77-8.1-7.77-8.1Z" style="fill:#dd884e" transform="translate(-593.84 -413.33)"/>
  <circle cx="46.63" cy="28.39" r="2.89" class="cls-4"/>
  <circle cx="46.92" cy="27.36" r=".76" class="cls-5"/>
  <ellipse cx="654.34" cy="436.9" class="cls-4" rx="3.05" ry="1.09" transform="rotate(-83.4 125.483 563.484)"/>
  <ellipse cx="654.71" cy="436.01" class="cls-5" rx=".88" ry=".39" transform="rotate(-79.65 110.012 585.402)"/>
  <path d="M2.03 40.6s6.1 9.16 11.52 9.94 8.81-1.7 8.58-4c0 0 2.26 3.61-2 8.58 0 0 26.53 15.82 41.29-6.43 0 0-2.64 13.95-22.31 14.59a24.67 24.67 0 0 1-2.76.06c-1.58.01-26.27 1.42-34.32-22.74ZM49.06 42.38c-13.63 5.28-20.11-4.16-20.41-4.9l4 2.44a17.79 17.79 0 0 0 7.86 2.74 46.31 46.31 0 0 0 6 .15 11.1 11.1 0 0 0 1.18-.11Z" class="cls-6"/>
</svg>
